<svg width="149" height="149" viewBox="0 0 149 149" fill="none" xmlns="http://www.w3.org/2000/svg">
<rect width="149" height="149" rx="26.1597" fill="white"/>
<path d="M112.165 96.5494C107.474 106.638 92.7124 119 71.1645 119C48.0702 119 34 106.119 34 83.6782C34 57.3958 56.2397 32 89.0702 32C103.486 32 116 38.7872 116 52.0048C116 76.0146 84.3801 85.4107 63.1883 88.0298C66.6576 95.6831 73.9623 100.381 82.6404 100.381C92.8854 100.381 100.536 96.3761 107.139 91.5049C111.483 88.0298 114.779 90.9851 112.175 96.5494H112.165ZM59.8819 72.193C59.8819 75.3217 61.2757 76.5446 64.2261 76.1981C72.3854 74.9752 94.1062 70.2771 94.1062 55.1436C94.1062 48.8762 89.762 43.4852 82.2945 43.4852C68.0514 43.4852 59.8819 58.2722 59.8819 72.193Z" fill="#022011"/>
</svg>
