<svg width="105" height="20" viewBox="0 0 105 20" fill="none" xmlns="http://www.w3.org/2000/svg">
<path d="M10.5735 10.4593C9.9391 11.8218 7.9422 13.4911 5.02735 13.4911C1.90332 13.4911 0 11.7516 0 8.72114C0 5.17186 3.00843 1.7423 7.44951 1.7423C9.39962 1.7423 11.0924 2.65887 11.0924 4.44383C11.0924 7.68622 6.81507 8.9551 3.94839 9.30879C4.41769 10.3423 5.40582 10.9768 6.57974 10.9768C7.9656 10.9768 9.00052 10.4359 9.89369 9.77808C10.4813 9.30879 10.9272 9.7079 10.5749 10.4593H10.5735ZM3.50112 7.17014C3.50112 7.59264 3.68966 7.75778 4.08877 7.71099C5.1925 7.54585 8.13074 6.91141 8.13074 4.86771C8.13074 4.02133 7.54309 3.29331 6.53294 3.29331C4.60623 3.29331 3.50112 5.29021 3.50112 7.17014ZM23.0518 1.97626C23.7798 1.97626 24.1803 2.14141 24.1803 2.6341C24.1803 3.66764 23.1701 3.22174 22.4173 5.17186L19.8562 12.0337C19.6209 12.6682 19.4571 12.9503 18.118 13.2558C16.6606 13.6081 16.2849 13.3494 16.0261 12.6682L13.0659 5.17186C12.3145 3.22174 11.2795 3.66764 11.2795 2.6341C11.2795 2.09324 11.702 1.97626 12.3599 1.97626H16.4019C17.1299 1.97626 17.5538 2.14141 17.5538 2.6341C17.5538 3.66764 16.2381 3.22174 16.9895 5.17186L18.9162 10.107L20.726 5.19525C21.4306 3.22174 20.1617 3.66764 20.1617 2.6341C20.1617 2.09324 20.5608 1.97626 21.242 1.97626H23.0518ZM34.2598 10.0602C33.8139 11.4461 31.7922 13.4911 28.5732 13.4911C25.3542 13.4911 22.9334 11.2121 22.9334 7.94495C22.9334 4.30346 25.8937 1.74093 29.0659 1.74093C32.0261 1.74093 33.6006 3.55066 33.8827 5.54757C33.9295 5.89988 33.7423 6.25219 33.3418 6.44074C31.016 7.56924 29.3934 8.25047 27.091 9.14364C27.5851 10.0602 28.5484 10.8818 30.193 10.8818C31.5555 10.8818 32.6372 10.1772 33.4836 9.3776C34.001 8.88354 34.4937 9.33081 34.2584 10.0588L34.2598 10.0602ZM26.341 6.11182C26.341 6.60588 26.4345 7.24032 26.5529 7.61603C27.6332 7.24032 28.7383 6.84122 29.7719 6.34715C30.171 6.15861 30.5715 6.01824 30.3595 5.31361C29.9838 3.99794 28.9503 3.22174 27.892 3.50387C26.9052 3.73921 26.341 4.72596 26.341 6.11182ZM44.364 3.97454C44.364 5.05488 43.8232 5.71271 43.1185 5.71271C41.873 5.71271 41.9432 4.39704 40.7693 4.39704C40.0179 4.39704 39.3587 5.14846 39.3587 6.67607V9.91846C39.3587 12.0571 40.5106 11.4695 40.5106 12.598C40.5106 13.1388 40.1115 13.2558 39.4302 13.2558H35.6236C34.919 13.2558 34.4951 13.0907 34.4951 12.5746C34.4951 11.4708 35.6704 12.0571 35.6704 9.91984V5.57234C35.6704 4.98469 35.3181 4.63238 34.9424 4.30346C34.7304 4.13831 34.4965 3.95114 34.4965 3.57543C34.4965 3.15293 34.7084 2.96439 35.2713 2.70566C36.1879 2.28316 37.9742 1.7657 38.3733 1.7423C38.7958 1.7423 38.961 2.02443 38.961 2.54051V3.69241C39.9009 2.28178 41.123 1.7423 42.1566 1.7423C43.5424 1.7423 44.3654 2.65887 44.3654 3.97454H44.364ZM56.7941 13.937C56.7941 16.545 53.8806 18.1896 49.862 18.1896C47.3945 18.1896 44.481 17.4148 44.481 15.4165C44.481 14.6885 45.0219 13.9591 45.915 13.6067C45.0219 13.1842 44.4576 12.4782 44.4576 11.5383C44.4576 10.5983 45.0219 9.84689 46.2673 9.23585C45.2572 8.62481 44.6461 7.63805 44.6461 6.36917C44.6461 3.94839 47.0201 1.83451 50.2157 1.73955H50.9671C51.413 1.76295 51.6718 1.80974 52.0723 1.80974C52.5897 1.80974 53.3879 1.64459 54.3513 0.587648C54.6334 0.235335 54.9623 0 55.4316 0C55.9959 0 56.4652 0.445897 56.4652 1.05694C56.4652 2.20884 55.1963 2.72493 54.0678 2.86668C54.866 3.54791 55.3367 4.51127 55.3367 5.68656C55.3367 8.17753 53.1278 9.98727 49.9556 10.0809C49.0858 10.1042 48.2876 10.0107 47.5582 9.79873C47.3229 9.98727 47.1825 10.2446 47.1825 10.5034C47.1825 11.1612 47.8872 11.3497 48.9207 11.3497C50.2598 11.3497 52.375 11.091 53.4788 11.091C55.6174 11.091 56.7927 12.2663 56.7927 13.9343L56.7941 13.937ZM53.5751 15.1123C53.5751 14.6183 53.2462 14.2426 52.3998 14.266C50.9658 14.266 49.9556 14.4297 48.5464 14.3829C47.9587 14.3595 47.3711 14.5715 47.3711 15.2527C47.3711 16.1693 48.5932 16.6152 50.5199 16.6152C52.7521 16.6152 53.5751 15.9807 53.5751 15.111V15.1123ZM48.1693 5.26682C48.1693 7.00499 48.8271 8.69775 50.3313 8.69775C51.2011 8.69775 51.8121 7.92293 51.8121 6.55909C51.8121 5.07827 51.1543 3.17495 49.6969 3.17495C48.7803 3.17495 48.1693 4.06812 48.1693 5.26682ZM66.9217 3.97454C66.9217 5.05488 66.3809 5.71271 65.6762 5.71271C64.4308 5.71271 64.501 4.39704 63.327 4.39704C62.5756 4.39704 61.9164 5.14846 61.9164 6.67607V9.91846C61.9164 12.0571 63.0683 11.4695 63.0683 12.598C63.0683 13.1388 62.6692 13.2558 61.988 13.2558H58.1813C57.4767 13.2558 57.0528 13.0907 57.0528 12.5746C57.0528 11.4708 58.2281 12.0571 58.2281 9.91984V5.57234C58.2281 4.98469 57.8758 4.63238 57.5001 4.30346C57.2882 4.13831 57.0542 3.95114 57.0542 3.57543C57.0542 3.15293 57.2661 2.96439 57.829 2.70566C58.7456 2.28316 60.5319 1.7657 60.931 1.7423C61.3535 1.7423 61.5187 2.02443 61.5187 2.54051V3.69241C62.4586 2.28178 63.6807 1.7423 64.7143 1.7423C66.1001 1.7423 66.9231 2.65887 66.9231 3.97454H66.9217ZM77.8008 10.0602C77.3549 11.4461 75.3332 13.4911 72.1142 13.4911C68.8952 13.4911 66.4745 11.2121 66.4745 7.94495C66.4745 4.30346 69.4347 1.74093 72.6069 1.74093C75.5672 1.74093 77.1416 3.55066 77.4237 5.54757C77.4705 5.89988 77.2833 6.25219 76.8829 6.44074C74.557 7.56924 72.9345 8.25047 70.632 9.14364C71.1247 10.0602 72.0895 10.8818 73.7341 10.8818C75.0965 10.8818 76.1782 10.1772 77.0232 9.3776C77.5407 8.88354 78.0334 9.33081 77.798 10.0588L77.8008 10.0602ZM69.882 6.11182C69.882 6.60588 69.9756 7.24032 70.0939 7.61603C71.1743 7.24032 72.2794 6.84122 73.3129 6.34715C73.712 6.15861 74.1111 6.01824 73.9006 5.31361C73.5249 3.99794 72.4899 3.22174 71.433 3.50387C70.4462 3.73921 69.882 4.72596 69.882 6.11182ZM89.5496 10.0602C89.1037 11.4461 87.0821 13.4911 83.8631 13.4911C80.6441 13.4911 78.2233 11.2121 78.2233 7.94495C78.2233 4.30346 81.1836 1.74093 84.3558 1.74093C87.316 1.74093 88.8904 3.55066 89.1726 5.54757C89.2193 5.89988 89.0322 6.25219 88.6317 6.44074C86.3059 7.56924 84.6833 8.25047 82.3809 9.14364C82.8749 10.0602 83.8383 10.8818 85.4829 10.8818C86.8454 10.8818 87.9271 10.1772 88.7734 9.3776C89.2909 8.88354 89.7836 9.33081 89.5483 10.0588L89.5496 10.0602ZM81.6308 6.11182C81.6308 6.60588 81.7244 7.24032 81.8428 7.61603C82.9231 7.24032 84.0282 6.84122 85.0618 6.34715C85.4609 6.15861 85.8614 6.01824 85.6494 5.31361C85.2737 3.99794 84.2402 3.22174 83.1818 3.50387C82.1951 3.73921 81.6308 4.72596 81.6308 6.11182ZM102.778 10.4827C103.083 11.9167 104 11.7048 104 12.598C104 13.1388 103.578 13.2558 102.92 13.2558H99.23C98.5254 13.2558 98.1015 13.0907 98.1015 12.5746C98.1015 11.7516 99.347 11.7764 99.0181 10.2488L98.2667 6.63066C97.9845 5.33838 97.5152 4.0695 96.2463 4.0929C95.1426 4.0929 94.2728 5.10304 94.2728 6.74763V9.91984C94.2728 12.0585 95.4247 11.4708 95.4247 12.5993C95.4247 13.1402 95.0256 13.2572 94.3444 13.2572H90.5378C89.8331 13.2572 89.4093 13.092 89.4093 12.576C89.4093 11.4722 90.5846 12.0585 90.5846 9.92121V5.57371C90.5846 4.98607 90.2322 4.63375 89.8565 4.30483C89.6446 4.13969 89.4106 3.95252 89.4106 3.57681C89.4106 3.15431 89.6226 2.96577 90.1855 2.70704C91.102 2.28453 92.8884 1.76707 93.2875 1.74368C93.71 1.74368 93.8751 2.0258 93.8751 2.54189V3.69379C94.7449 2.40151 96.084 1.74368 97.5882 1.74368C100.431 1.74368 101.325 3.69379 101.936 6.53707L102.782 10.4855L102.778 10.4827Z" fill="#022011"/>
</svg>
