<svg width="556" height="101" viewBox="0 0 556 101" fill="none" xmlns="http://www.w3.org/2000/svg">
<path d="M56.3799 55.7708C52.997 63.0357 42.3491 71.937 26.8067 71.937C10.1488 71.937 0 62.6615 0 46.5026C0 27.5772 16.0415 9.29025 39.722 9.29025C50.1204 9.29025 59.1464 14.1775 59.1464 23.6953C59.1464 40.9842 36.3391 47.7501 21.0535 49.636C23.5558 55.1471 28.8247 58.53 35.0843 58.53C42.4739 58.53 47.9923 55.6461 52.7548 52.1384C55.8882 49.636 58.2658 51.7641 56.3872 55.7708H56.3799ZM18.6686 38.2324C18.6686 40.4852 19.6739 41.3658 21.802 41.1163C27.6873 40.2357 43.3545 36.8528 43.3545 25.9554C43.3545 21.4424 40.221 17.5605 34.8348 17.5605C24.5612 17.5605 18.6686 28.2083 18.6686 38.2324ZM122.916 10.5378C126.798 10.5378 128.933 11.4183 128.933 14.0454C128.933 19.5565 123.547 17.1789 119.533 27.5772L105.877 64.1658C104.622 67.5487 103.748 69.0531 96.6083 70.6822C88.8371 72.5608 86.8337 71.1812 85.4541 67.5487L69.6695 27.5772C65.6628 17.1789 60.1444 19.5565 60.1444 14.0454C60.1444 11.1615 62.3973 10.5378 65.905 10.5378H87.4575C91.3394 10.5378 93.5996 11.4183 93.5996 14.0454C93.5996 19.5565 86.5842 17.1789 90.5909 27.5772L100.864 53.8922L110.514 27.702C114.271 17.1789 107.506 19.5565 107.506 14.0454C107.506 11.1615 109.634 10.5378 113.266 10.5378H122.916ZM182.679 53.6427C180.301 61.0324 169.521 71.937 152.357 71.937C135.193 71.937 122.285 59.7849 122.285 42.3638C122.285 22.9468 138.069 9.28291 154.984 9.28291C170.769 9.28291 179.164 18.9327 180.668 29.5806C180.918 31.4591 179.92 33.3377 177.784 34.3431C165.383 40.3605 156.731 43.9929 144.454 48.7554C147.088 53.6427 152.225 58.0237 160.994 58.0237C168.259 58.0237 174.027 54.2665 178.54 50.0029C181.299 47.3685 183.926 49.7534 182.671 53.6354L182.679 53.6427ZM140.454 32.5892C140.454 35.2237 140.953 38.6066 141.585 40.61C147.345 38.6066 153.238 36.4785 158.749 33.8441C160.877 32.8387 163.012 32.0902 161.882 28.333C159.879 21.3177 154.368 17.1789 148.725 18.6832C143.463 19.9381 140.454 25.1996 140.454 32.5892ZM236.556 21.1929C236.556 26.9535 233.672 30.4611 229.915 30.4611C223.274 30.4611 223.648 23.4458 217.389 23.4458C213.382 23.4458 209.867 27.4525 209.867 35.5979V52.8869C209.867 64.2906 216.009 61.1571 216.009 67.1745C216.009 70.0584 213.881 70.6822 210.249 70.6822H189.951C186.194 70.6822 183.934 69.8016 183.934 67.0497C183.934 61.1644 190.201 64.2906 190.201 52.8942V29.7126C190.201 26.5792 188.322 24.7006 186.319 22.9468C185.188 22.0662 183.941 21.0682 183.941 19.0648C183.941 16.812 185.071 15.8066 188.072 14.427C192.96 12.1742 202.485 9.415 204.613 9.29025C206.866 9.29025 207.746 10.7946 207.746 13.5464V19.6886C212.758 12.1668 219.275 9.29025 224.786 9.29025C232.175 9.29025 236.564 14.1775 236.564 21.1929H236.556ZM302.836 74.3146C302.836 88.2206 287.3 96.9899 265.873 96.9899C252.715 96.9899 237.18 92.8584 237.18 82.2033C237.18 78.3213 240.064 74.432 244.827 72.5534C240.064 70.3006 237.055 66.5361 237.055 61.524C237.055 56.512 240.064 52.5053 246.705 49.2471C241.319 45.9889 238.061 40.7274 238.061 33.9615C238.061 21.0535 250.719 9.78191 267.759 9.27557H271.765C274.143 9.40032 275.523 9.64982 277.658 9.64982C280.417 9.64982 284.673 8.76923 289.81 3.13344C291.314 1.25484 293.068 0 295.571 0C298.579 0 301.082 2.3776 301.082 5.63579C301.082 11.7779 294.316 14.5298 288.298 15.2856C292.555 18.9181 295.064 24.0548 295.064 30.3217C295.064 43.604 283.286 53.2538 266.372 53.7528C261.734 53.8776 257.478 53.3785 253.588 52.2485C252.334 53.2538 251.585 54.6261 251.585 56.0056C251.585 59.5133 255.342 60.5187 260.853 60.5187C267.993 60.5187 279.272 59.1391 285.158 59.1391C296.561 59.1391 302.828 65.406 302.828 74.2999L302.836 74.3146ZM285.671 80.5815C285.671 77.9471 283.918 75.9437 279.404 76.0685C271.758 76.0685 266.372 76.9417 258.857 76.6922C255.724 76.5675 252.59 77.6976 252.59 81.33C252.59 86.2173 259.107 88.5949 269.38 88.5949C281.283 88.5949 285.671 85.2119 285.671 80.5742V80.5815ZM256.847 28.0835C256.847 37.3518 260.354 46.3778 268.375 46.3778C273.013 46.3778 276.271 42.2464 276.271 34.9742C276.271 27.0782 272.763 16.9294 264.992 16.9294C260.105 16.9294 256.847 21.6919 256.847 28.0835ZM356.838 21.1929C356.838 26.9535 353.954 30.4611 350.197 30.4611C343.556 30.4611 343.93 23.4458 337.67 23.4458C333.664 23.4458 330.149 27.4525 330.149 35.5979V52.8869C330.149 64.2906 336.291 61.1571 336.291 67.1745C336.291 70.0584 334.163 70.6822 330.53 70.6822H310.233C306.475 70.6822 304.215 69.8016 304.215 67.0497C304.215 61.1644 310.482 64.2906 310.482 52.8942V29.7126C310.482 26.5792 308.603 24.7006 306.6 22.9468C305.47 22.0662 304.223 21.0682 304.223 19.0648C304.223 16.812 305.353 15.8066 308.354 14.427C313.241 12.1742 322.766 9.415 324.894 9.29025C327.147 9.29025 328.028 10.7946 328.028 13.5464V19.6886C333.04 12.1668 339.556 9.29025 345.067 9.29025C352.457 9.29025 356.845 14.1775 356.845 21.1929H356.838ZM414.847 53.6427C412.469 61.0324 401.689 71.937 384.525 71.937C367.361 71.937 354.453 59.7849 354.453 42.3638C354.453 22.9468 370.238 9.28291 387.152 9.28291C402.937 9.28291 411.332 18.9327 412.836 29.5806C413.086 31.4591 412.088 33.3377 409.952 34.3431C397.551 40.3605 388.899 43.9929 376.622 48.7554C379.249 53.6427 384.393 58.0237 393.162 58.0237C400.427 58.0237 406.195 54.2665 410.701 50.0029C413.46 47.3685 416.087 49.7534 414.832 53.6354L414.847 53.6427ZM372.622 32.5892C372.622 35.2237 373.121 38.6066 373.753 40.61C379.513 38.6066 385.406 36.4785 390.917 33.8441C393.045 32.8387 395.173 32.0902 394.05 28.333C392.047 21.3177 386.529 17.1789 380.893 18.6832C375.631 19.9381 372.622 25.1996 372.622 32.5892ZM477.494 53.6427C475.116 61.0324 464.336 71.937 447.172 71.937C430.008 71.937 417.1 59.7849 417.1 42.3638C417.1 22.9468 432.884 9.28291 449.799 9.28291C465.584 9.28291 473.979 18.9327 475.483 29.5806C475.732 31.4591 474.734 33.3377 472.599 34.3431C460.197 40.3605 451.546 43.9929 439.269 48.7554C441.903 53.6427 447.04 58.0237 455.809 58.0237C463.074 58.0237 468.842 54.2665 473.355 50.0029C476.114 47.3685 478.741 49.7534 477.486 53.6354L477.494 53.6427ZM435.269 32.5892C435.269 35.2237 435.768 38.6066 436.399 40.61C442.16 38.6066 448.053 36.4785 453.564 33.8441C455.692 32.8387 457.827 32.0902 456.697 28.333C454.694 21.3177 449.183 17.1789 443.539 18.6832C438.278 19.9381 435.269 25.1996 435.269 32.5892ZM548.029 55.8956C549.658 63.542 554.545 62.4119 554.545 67.1745C554.545 70.0584 552.293 70.6822 548.785 70.6822H529.111C525.354 70.6822 523.094 69.8016 523.094 67.0497C523.094 62.6615 529.735 62.7935 527.981 54.6481L523.974 35.3558C522.47 28.4651 519.968 21.6993 513.202 21.824C507.316 21.824 502.679 27.2103 502.679 35.9795V52.8942C502.679 64.2979 508.821 61.1644 508.821 67.1818C508.821 70.0658 506.693 70.6895 503.06 70.6895H482.763C479.005 70.6895 476.745 69.8089 476.745 67.0571C476.745 61.1718 483.012 64.2979 483.012 52.9016V29.72C483.012 26.5865 481.133 24.7079 479.13 22.9541C478 22.0735 476.752 21.0755 476.752 19.0722C476.752 16.8193 477.883 15.814 480.884 14.4344C485.771 12.1815 495.296 9.42233 497.424 9.29758C499.677 9.29758 500.558 10.8019 500.558 13.5538V19.6959C505.196 12.8053 512.336 9.29758 520.356 9.29758C535.517 9.29758 540.28 19.6959 543.538 34.8568L548.051 55.9102L548.029 55.8956Z" fill="#022011"/>
</svg>
