<svg width="78" height="78" viewBox="0 0 78 78" fill="none" xmlns="http://www.w3.org/2000/svg">
<path d="M17.3322 26.0032C17.3322 30.7903 21.2129 34.6709 26 34.6709C30.787 34.6709 34.6677 30.7903 34.6677 26.0032C34.6677 21.2161 30.787 17.3354 26 17.3354C21.2129 17.3354 17.3322 21.2161 17.3322 26.0032ZM17.3322 26.0032H8.66772M43.3322 25.9999H69.3322M60.6677 53.0789C60.6677 57.866 56.787 61.7467 52 61.7467C47.2129 61.7467 43.3322 57.866 43.3322 53.0789C43.3322 48.2919 47.2129 44.4112 52 44.4112C56.787 44.4112 60.6677 48.2919 60.6677 53.0789ZM60.6677 53.0789H69.3322M34.6677 53.0757H8.66772" stroke="black" stroke-width="4.875" stroke-miterlimit="10" stroke-linecap="round" stroke-linejoin="round"/>
</svg>
