<svg width="78" height="78" viewBox="0 0 78 78" fill="none" xmlns="http://www.w3.org/2000/svg">
<path d="M28.2002 35.7306L49.7997 24.9341M49.7997 53.0596L28.2002 42.2631M28.9802 38.9968C28.9802 43.0354 25.7063 46.3093 21.6677 46.3093C17.6291 46.3093 14.3552 43.0354 14.3552 38.9968C14.3552 34.9582 17.6291 31.6843 21.6677 31.6843C25.7063 31.6843 28.9802 34.9582 28.9802 38.9968ZM63.6447 21.6743C63.6447 25.7129 60.3708 28.9868 56.3322 28.9868C52.2936 28.9868 49.0197 25.7129 49.0197 21.6743C49.0197 17.6357 52.2936 14.3618 56.3322 14.3618C60.3708 14.3618 63.6447 17.6357 63.6447 21.6743ZM63.6447 56.3258C63.6447 60.3644 60.3708 63.6383 56.3322 63.6383C52.2936 63.6383 49.0197 60.3644 49.0197 56.3258C49.0197 52.2872 52.2936 49.0133 56.3322 49.0133C60.3708 49.0133 63.6447 52.2872 63.6447 56.3258Z" stroke="black" stroke-width="4.875" stroke-miterlimit="10" stroke-linecap="round" stroke-linejoin="round"/>
</svg>
