<svg width="78" height="78" viewBox="0 0 78 78" fill="none" xmlns="http://www.w3.org/2000/svg">
<path d="M8.66772 64.4833V49.8355C8.66772 46.2443 11.5765 43.3355 15.1677 43.3355H45.5C49.0912 43.3355 52 46.2443 52 49.8355V64.4833M47.6677 13.52C52.988 13.52 57.2975 17.8328 57.2975 23.1498C57.2975 28.4668 52.9847 32.7795 47.6677 32.7795M62.8322 43.3388C66.4235 43.3388 69.3322 46.2475 69.3322 49.8388V64.4865M39.962 23.1498C39.962 28.4681 35.6506 32.7795 30.3322 32.7795C25.0139 32.7795 20.7025 28.4681 20.7025 23.1498C20.7025 17.8314 25.0139 13.52 30.3322 13.52C35.6506 13.52 39.962 17.8314 39.962 23.1498Z" stroke="black" stroke-width="4.875" stroke-miterlimit="10" stroke-linecap="round" stroke-linejoin="round"/>
</svg>
